<?xml version="1.0" encoding="UTF-8"?>
<svg id="antimatter" xmlns="http://www.w3.org/2000/svg" viewBox="0 0 256 256">
  <defs>
    <style>
      .cls-1 {
        fill: #85daeb;
      }

      .cls-2 {
        fill: #5fa1e7;
      }

      .cls-3 {
        fill: #4c60aa;
      }
    </style>
  </defs>
  <circle class="cls-2" cx="128" cy="128" r="64"/>
  <circle class="cls-1" cx="48" cy="208" r="24"/>
  <path class="cls-3" d="M18.83,194.85c4.33-9.59,13.25-16.66,23.96-18.42-8.14-14.29-12.79-30.81-12.79-48.43,0-54.12,43.88-98,98-98s98,43.88,98,98-43.88,98-98,98c-17.62,0-34.14-4.65-48.43-12.79-1.76,10.71-8.83,19.63-18.42,23.96,19.46,11.94,42.35,18.83,66.85,18.83,70.69,0,128-57.31,128-128S198.69,0,128,0,0,57.31,0,128c0,24.5,6.89,47.39,18.83,66.85Z"/>
</svg>