<?xml version="1.0" encoding="UTF-8"?>
<svg id="cold" xmlns="http://www.w3.org/2000/svg" viewBox="0 0 256 256">
  <defs>
    <style>
      .cls-1 {
        fill: #85daeb;
      }

      .cls-2 {
        fill: #5fc9e7;
      }

      .cls-3 {
        fill: #5f6ee7;
      }

      .cls-4 {
        fill: #eee;
      }
    </style>
  </defs>
  <path class="cls-3" d="M208,128v24h-64v-24H0c0,70.69,57.31,128,128,128s128-57.31,128-128h-48Z"/>
  <path class="cls-1" d="M208,118.99c-13.8-3.55-24-16.08-24-30.99h-40v40h64v-9.01Z"/>
  <rect class="cls-4" x="144" y="128" width="64" height="24"/>
  <polygon class="cls-2" points="48 72 48 112 112 112 112 48 72 48 72 72 48 72"/>
  <polygon class="cls-1" points="48 48 72 48 72 24 24 24 24 72 48 72 48 48"/>
  <rect class="cls-4" x="48" y="48" width="24" height="24"/>
  <path class="cls-2" d="M208,118.99c2.56.66,5.24,1.01,8,1.01,17.67,0,32-14.33,32-32s-14.33-32-32-32-32,14.33-32,32h24v30.99Z"/>
  <path class="cls-4" d="M208,118.99v-30.99h-24c0,14.91,10.2,27.44,24,30.99Z"/>
  <path class="cls-3" d="M144,48c3.27,0,6.39-.66,9.23-1.84-.79-1.9-1.23-3.97-1.23-6.16,0-8.84,7.16-16,16-16,0-13.25-10.75-24-24-24s-24,10.75-24,24,10.75,24,24,24Z"/>
  <path class="cls-1" d="M153.23,46.16c2.41,5.78,8.11,9.84,14.77,9.84,8.84,0,16-7.16,16-16s-7.16-16-16-16c0,9.98-6.1,18.54-14.77,22.16Z"/>
  <path class="cls-4" d="M152,40c0,2.18.44,4.26,1.23,6.16,8.67-3.62,14.77-12.17,14.77-22.16-8.84,0-16,7.16-16,16Z"/>
</svg>