<?xml version="1.0" encoding="UTF-8"?>
<svg id="energy" xmlns="http://www.w3.org/2000/svg" viewBox="0 0 256 256">
  <defs>
    <style>
      .cls-1 {
        fill: #f5daa7;
      }

      .cls-2 {
        fill: #f3a787;
      }

      .cls-3 {
        fill: #f288a1;
      }

      .cls-4 {
        fill: #5f6ee7;
      }

      .cls-5 {
        fill: #e55353;
      }

      .cls-6 {
        fill: #8dd894;
      }
    </style>
  </defs>
  <polygon class="cls-6" points="247.11 176 184 194.28 231.39 239.8 247.11 176"/>
  <circle class="cls-4" cx="192" cy="104" r="64"/>
  <polygon class="cls-2" points="202.95 15.08 0 115.24 188.22 240.92 202.95 15.08"/>
  <polygon class="cls-3" points="110.51 144.37 26.81 222.65 136.45 256 110.51 144.37"/>
  <path class="cls-5" d="M150.1,79.51c-6.94,27.85-32.1,48.49-62.1,48.49-10.88,0-21.12-2.72-30.1-7.51-1.24,4.97-1.9,10.16-1.9,15.51,0,35.35,28.65,64,64,64s64-28.65,64-64c0-24.46-13.73-45.72-33.9-56.49Z"/>
  <path class="cls-1" d="M120,72c10.88,0,21.12,2.72,30.1,7.51,1.24-4.97,1.9-10.16,1.9-15.51C152,28.65,123.35,0,88,0S24,28.65,24,64c0,24.46,13.73,45.72,33.9,56.49,6.94-27.85,32.1-48.49,62.1-48.49Z"/>
  <path class="cls-2" d="M150.1,79.51c-8.97-4.79-19.21-7.51-30.1-7.51-29.99,0-55.16,20.64-62.1,48.49,8.97,4.79,19.21,7.51,30.1,7.51,29.99,0,55.16-20.64,62.1-48.49Z"/>
</svg>