<?xml version="1.0" encoding="UTF-8"?>
<svg id="godputer" xmlns="http://www.w3.org/2000/svg" viewBox="0 0 256 256">
  <defs>
    <style>
      .cls-1 {
        fill: #f5daa7;
      }

      .cls-2 {
        fill: #f288a1;
      }

      .cls-3 {
        fill: #e55353;
      }

      .cls-4 {
        fill: #5fa1e7;
      }

      .cls-5 {
        fill: #ab58a8;
      }

      .cls-6 {
        fill: #4c60aa;
      }

      .cls-7 {
        fill: #8dd894;
      }
    </style>
  </defs>
  <path class="cls-6" d="M128,256c70.69,0,128-57.31,128-128H0c0,70.69,57.31,128,128,128Z"/>
  <circle class="cls-4" cx="128" cy="128" r="104"/>
  <circle class="cls-7" cx="128" cy="128" r="80"/>
  <circle class="cls-1" cx="128" cy="128" r="56"/>
  <circle class="cls-3" cx="128" cy="128" r="32"/>
  <rect class="cls-1" x="20" y="24" width="24" height="24"/>
  <rect class="cls-7" x="192" y="16" width="16" height="16"/>
  <circle class="cls-2" cx="240" cy="56" r="16"/>
  <circle class="cls-5" cx="8" cy="88" r="8"/>
  <circle class="cls-3" cx="80" cy="8" r="8"/>
  <polygon class="cls-7" points="177.41 81.41 174.59 78.59 198 55.17 198 24 202 24 202 56.83 177.41 81.41"/>
  <polygon class="cls-3" points="126.59 129.41 78 80.83 78 8 82 8 82 79.17 129.41 126.59 126.59 129.41"/>
  <polygon class="cls-1" points="86.59 121.41 30 64.83 30 40 34 40 34 63.17 89.41 118.59 86.59 121.41"/>
</svg>