<?xml version="1.0" encoding="UTF-8"?>
<svg id="godputer" xmlns="http://www.w3.org/2000/svg" viewBox="0 0 256 256">
  <defs>
    <style>
      .cls-1 {
        fill: #f5daa7;
      }

      .cls-2 {
        fill: #85daeb;
      }

      .cls-3 {
        fill: #f3a787;
      }

      .cls-4 {
        fill: #855395;
      }

      .cls-5 {
        fill: #f288a1;
      }

      .cls-6 {
        fill: #5dc190;
      }

      .cls-7 {
        fill: #e55353;
      }

      .cls-8 {
        fill: #ffcada;
      }

      .cls-9 {
        fill: #5fa1e7;
      }

      .cls-10 {
        fill: #ab58a8;
      }

      .cls-11 {
        fill: #8dd894;
      }
    </style>
  </defs>
  <path class="cls-5" d="M64,64C28.65,64,0,92.65,0,128h64v-64Z"/>
  <path class="cls-8" d="M64,192v-64H0c0,35.35,28.65,64,64,64Z"/>
  <path class="cls-3" d="M64,64h64V0c-35.35,0-64,28.65-64,64Z"/>
  <path class="cls-7" d="M192,64C192,28.65,163.35,0,128,0v64h64Z"/>
  <path class="cls-9" d="M192,192c35.35,0,64-28.65,64-64h-64v64Z"/>
  <path class="cls-2" d="M192,64v64h64c0-35.35-28.65-64-64-64Z"/>
  <path class="cls-6" d="M64,192c0,35.35,28.65,64,64,64v-64h-64Z"/>
  <path class="cls-11" d="M192,192h-64v64c35.35,0,64-28.65,64-64Z"/>
  <path class="cls-1" d="M128,64c11.66,0,22.58,3.13,32,8.58,9.71,5.62,17.8,13.71,23.42,23.42,5.45,9.42,8.58,20.34,8.58,32v-64h-64Z"/>
  <path class="cls-1" d="M96,72.58c9.42-5.45,20.34-8.58,32-8.58h-64v64c0-11.66,3.13-22.58,8.58-32,5.62-9.71,13.71-17.8,23.42-23.42Z"/>
  <path class="cls-1" d="M72.58,160c-5.45-9.42-8.58-20.34-8.58-32v64h64c-11.66,0-22.58-3.13-32-8.58-9.71-5.62-17.8-13.71-23.42-23.42Z"/>
  <path class="cls-1" d="M160,183.42c-9.42,5.45-20.34,8.58-32,8.58h64v-64c0,11.66-3.13,22.58-8.58,32-5.62,9.71-13.71,17.8-23.42,23.42Z"/>
  <path class="cls-4" d="M72.58,160c5.62,9.71,13.71,17.8,23.42,23.42,9.42,5.45,20.34,8.58,32,8.58v-64h-64c0,11.66,3.13,22.58,8.58,32Z"/>
  <path class="cls-4" d="M183.42,96c-5.62-9.71-13.71-17.8-23.42-23.42-9.42-5.45-20.34-8.58-32-8.58v64h64c0-11.66-3.13-22.58-8.58-32Z"/>
  <path class="cls-10" d="M96,72.58c-9.71,5.62-17.8,13.71-23.42,23.42-5.45,9.42-8.58,20.34-8.58,32h64v-64c-11.66,0-22.58,3.13-32,8.58Z"/>
  <path class="cls-10" d="M128,128v64c11.66,0,22.58-3.13,32-8.58,9.71-5.62,17.8-13.71,23.42-23.42,5.45-9.42,8.58-20.34,8.58-32h-64Z"/>
</svg>