<?xml version="1.0" encoding="UTF-8"?>
<svg id="Layer_1" data-name="Layer 1" xmlns="http://www.w3.org/2000/svg" viewBox="0 0 256 256">
  <defs>
    <style>
      .cls-1 {
        fill-rule: evenodd;
      }
    </style>
  </defs>
  <path class="cls-1" d="M5.27,23.26C2.27,23.55-.01,26.07,0,29.08v157.27c0,3.21,2.6,5.82,5.82,5.82h244.36c3.21,0,5.82-2.6,5.82-5.82V29.08c0-3.21-2.61-5.82-5.82-5.82H5.82c-.18,0-.36,0-.55,0h0ZM11.64,34.9h232.73v125.82H11.64s0-125.82,0-125.82Z"/>
  <path class="cls-1" d="M102.09,197.29c-.34.06-.68.15-1,.27-.51.14-1,.36-1.45.64-.06.03-.12.06-.18.09-.03.03-.06.06-.09.09-.12.09-.25.18-.36.27-.03.03-.06.06-.09.09-.12.09-.25.18-.36.27,0,.03,0,.06,0,.09-.13.12-.25.24-.36.36,0,.03,0,.06,0,.09-.13.12-.25.24-.36.36,0,.03,0,.06,0,.09-.1.15-.19.3-.27.45,0,.03,0,.06,0,.09-.1.15-.19.3-.27.45,0,.03,0,.06,0,.09-.12.32-.21.66-.27,1,0,.03,0,.06,0,.09-.13.6-.16,1.21-.09,1.82-.11,1.67-.5,2.35-1.27,3.18-.89.97-2.63,2.05-4.91,3.27-2.28,1.22-5.12,2.61-7.73,5.18-2.61,2.58-4.64,6.72-4.55,11.36.05,3.18,2.64,5.73,5.82,5.73h87.55c3.18,0,5.77-2.55,5.82-5.73.08-4.65-1.93-8.79-4.55-11.36-2.61-2.57-5.45-3.96-7.73-5.18s-4.02-2.31-4.91-3.27c-.79-.85-1.28-1.5-1.36-3.27.12-.82.05-1.66-.18-2.45,0-.03,0-.06,0-.09-.05-.15-.11-.31-.18-.45,0-.03,0-.06,0-.09-.08-.16-.18-.31-.27-.45,0-.03,0-.06,0-.09-.09-.12-.18-.25-.27-.36,0-.03,0-.06,0-.09-.12-.13-.24-.25-.36-.36,0-.03,0-.06,0-.09-.12-.13-.24-.25-.36-.36-.03-.03-.06-.06-.09-.09-.12-.13-.24-.25-.36-.36-.03,0-.06,0-.09,0-.09-.06-.18-.12-.27-.18-.06-.06-.12-.12-.18-.18-.12-.1-.24-.19-.36-.27-.03,0-.06,0-.09,0-.15-.07-.3-.13-.45-.18-.72-.3-1.49-.46-2.27-.45-.4-.01-.79.02-1.18.09h-48.27c-.39-.07-.79-.1-1.18-.09-.18,0-.36,0-.55,0h0Z"/>
</svg>