<?xml version="1.0" encoding="UTF-8"?>
<svg id="gravity" xmlns="http://www.w3.org/2000/svg" viewBox="0 0 256 256">
  <defs>
    <style>
      .cls-1 {
        fill: #5d4776;
      }

      .cls-2 {
        fill: #463c5e;
      }

      .cls-3 {
        fill: #ca60ae;
      }

      .cls-4 {
        fill: #855395;
      }

      .cls-5 {
        fill: #ab58a8;
      }
    </style>
  </defs>
  <polygon class="cls-1" points="128 256 232 152 24 152 128 256"/>
  <circle class="cls-3" cx="128" cy="56" r="56"/>
  <circle class="cls-5" cx="128" cy="88" r="56"/>
  <path class="cls-4" d="M128,96c25.37,0,46.78,16.87,53.67,40,1.51-5.07,2.33-10.44,2.33-16,0-30.93-25.07-56-56-56s-56,25.07-56,56c0,5.56.82,10.93,2.33,16,6.89-23.13,28.3-40,53.67-40Z"/>
  <path class="cls-2" d="M128,176c-25.37,0-46.78-16.87-53.67-40-1.51,5.07-2.33,10.44-2.33,16,0,30.93,25.07,56,56,56s56-25.07,56-56c0-5.56-.82-10.93-2.33-16-6.89,23.13-28.3,40-53.67,40Z"/>
  <path class="cls-1" d="M128,176c25.37,0,46.78-16.87,53.67-40-6.89-23.13-28.3-40-53.67-40s-46.78,16.87-53.67,40c6.89,23.13,28.3,40,53.67,40Z"/>
</svg>