<?xml version="1.0" encoding="UTF-8"?>
<svg id="heat" xmlns="http://www.w3.org/2000/svg" viewBox="0 0 256 256">
  <defs>
    <style>
      .cls-1 {
        fill: #f5daa7;
      }

      .cls-2 {
        fill: #f3a787;
      }

      .cls-3 {
        fill: #e55353;
      }
    </style>
  </defs>
  <path class="cls-3" d="M213.62,128h42.38C256,57.31,198.69,0,128,0S0,57.31,0,128h45.37c3.3-9.32,12.18-16,22.63-16s19.33,6.68,22.63,16h99.63l11.68-11.68,11.68,11.68Z"/>
  <path class="cls-2" d="M44.01,136.26c-15.79,1.97-28.01,15.42-28.01,31.74,0,17.67,14.33,32,32,32s32-14.33,32-32c0-3.61-.61-7.08-1.71-10.32-3.12,1.48-6.61,2.32-10.29,2.32-13.17,0-23.86-10.61-23.99-23.74Z"/>
  <path class="cls-2" d="M44,136c0,.09,0,.17,0,.26,1.31-.16,2.64-.26,3.99-.26,14.06,0,26,9.07,30.29,21.68,8.1-3.85,13.71-12.11,13.71-21.68,0-2.81-.49-5.5-1.37-8h-45.26c-.88,2.5-1.37,5.19-1.37,8Z"/>
  <path class="cls-1" d="M68,112c-10.45,0-19.33,6.68-22.63,16h45.26c-3.3-9.32-12.18-16-22.63-16Z"/>
  <path class="cls-1" d="M48,136c-1.35,0-2.68.09-3.99.26.14,13.14,10.82,23.74,23.99,23.74,3.68,0,7.17-.83,10.29-2.32-4.29-12.61-16.23-21.68-30.29-21.68Z"/>
  <polygon class="cls-2" points="225.07 161.07 235.88 150.26 213.62 128 190.26 128 168 150.26 187.62 169.88 210.75 146.75 225.07 161.07"/>
  <polygon class="cls-1" points="201.94 116.32 190.26 128 213.62 128 201.94 116.32"/>
  <polygon class="cls-3" points="120.64 217.92 109.44 229.12 84.8 204.48 64.64 224.64 85.29 245.29 96 256 115.67 236.33 127.36 224.64 120.64 217.92"/>
  <polygon class="cls-2" points="120.64 217.92 140.8 197.76 109.44 166.4 78.08 197.76 84.8 204.48 96 193.28 120.64 217.92"/>
  <rect class="cls-1" x="94.8" y="193.78" width="15.84" height="34.85" transform="translate(-119.25 134.49) rotate(-45)"/>
  <polygon class="cls-2" points="201.94 184.2 187.62 169.88 165.49 192 210.75 237.25 256 192 225.07 161.07 201.94 184.2"/>
  <rect class="cls-1" x="189.99" y="155.34" width="32.71" height="20.26" transform="translate(-56.57 194.37) rotate(-45)"/>
</svg>