<?xml version="1.0" encoding="UTF-8"?>
<svg id="Layer_1" xmlns="http://www.w3.org/2000/svg" version="1.1" viewBox="0 0 256 256">
  <!-- Generator: Adobe Illustrator 30.2.0, SVG Export Plug-In . SVG Version: 2.1.1 Build 105)  -->
  <path d="M228,112.4c-10.6-10.6-25-16.5-40-16.4h-8v-32H12v160c0,17.7,14.3,32,32,32h104c17.7,0,32-14.3,32-32v-16h5.7c31.9.3,58-25.3,58.3-57.2,0-.2,0-.4,0-.6-.4-14.2-6.1-27.6-16-37.8ZM188,184.4h-8v-64.4h8c17.7,0,32,14.3,32,32s-14.3,32-32,32v.4Z"/>
  <path d="M92,48c4.4,0,8-3.6,8-8s1.8-6.4,5.7-10.3c6.4-5.4,10.2-13.3,10.3-21.7,0-4.4-3.6-8-8-8s-8,3.6-8,8-1.8,6.4-5.7,10.3c-6.4,5.4-10.2,13.3-10.3,21.7,0,4.4,3.6,8,8,8Z"/>
  <path d="M124,48c4.4,0,8-3.6,8-8s1.8-6.4,5.7-10.3c6.4-5.4,10.2-13.3,10.3-21.7,0-4.4-3.6-8-8-8s-8,3.6-8,8-1.8,6.4-5.7,10.3c-6.4,5.4-10.2,13.3-10.3,21.7,0,4.4,3.6,8,8,8Z"/>
  <path d="M60,48c4.4,0,8-3.6,8-8s1.8-6.4,5.7-10.3c6.4-5.4,10.2-13.3,10.3-21.7,0-4.4-3.6-8-8-8s-8,3.6-8,8-1.8,6.4-5.7,10.3c-6.4,5.4-10.2,13.3-10.3,21.7,0,4.4,3.6,8,8,8Z"/>
</svg>