<?xml version="1.0" encoding="UTF-8"?>
<svg id="matter" xmlns="http://www.w3.org/2000/svg" viewBox="0 0 256 256">
  <defs>
    <style>
      .cls-1 {
        fill: #f288a1;
      }

      .cls-2 {
        fill: #e55353;
      }

      .cls-3 {
        fill: #ffcada;
      }
    </style>
  </defs>
  <circle class="cls-1" cx="128" cy="128" r="64"/>
  <circle class="cls-3" cx="208" cy="48" r="24"/>
  <path class="cls-2" d="M237.17,61.15c-4.33,9.59-13.25,16.66-23.96,18.42,8.14,14.29,12.79,30.81,12.79,48.43,0,54.12-43.88,98-98,98S30,182.12,30,128,73.88,30,128,30c17.62,0,34.14,4.65,48.43,12.79,1.76-10.71,8.83-19.63,18.42-23.96C175.39,6.89,152.5,0,128,0,57.31,0,0,57.31,0,128s57.31,128,128,128,128-57.31,128-128c0-24.5-6.89-47.39-18.83-66.85Z"/>
</svg>