<?xml version="1.0" encoding="UTF-8"?>
<svg id="petunia" xmlns="http://www.w3.org/2000/svg" viewBox="0 0 256 256">
  <defs>
    <style>
      .cls-1 {
        fill: #f288a1;
      }

      .cls-2 {
        fill: #e55353;
      }

      .cls-3 {
        fill: #eee;
      }

      .cls-4 {
        fill: #ffcada;
      }
    </style>
  </defs>
  <g>
    <path class="cls-1" d="M169.09,53.47c6.57-2.13,13.23-3.13,19.78-3.14-8.33-25.66-32.43-44.22-60.87-44.22v88.48c6.12-18.81,20.84-34.54,41.09-41.12Z"/>
    <path class="cls-4" d="M86.91,53.47c20.26,6.58,34.97,22.31,41.09,41.12V6.11c-28.44,0-52.54,18.56-60.87,44.22,6.55,0,13.21,1,19.78,3.14Z"/>
    <path class="cls-1" d="M64,70.11c0-6.91,1.11-13.55,3.13-19.78-26.98,0-52.08,17.18-60.87,44.23h0l84.15,27.34c-16-11.63-26.41-30.49-26.41-51.79Z"/>
    <path class="cls-4" d="M90.41,121.9h0L6.26,94.56c-8.79,27.05,1.42,55.7,23.25,71.56,2.03-6.23,5.03-12.26,9.09-17.84,12.52-17.23,32.03-26.36,51.81-26.37Z"/>
    <path class="cls-2" d="M90.41,121.9h0c13.05,0,26.22,3.95,37.59,12.21-4.34-13.36-4.04-27.11,0-39.52-6.12-18.81-20.84-34.54-41.09-41.12-6.57-2.13-13.23-3.13-19.78-3.14-2.02,6.23-3.13,12.87-3.13,19.78,0,21.3,10.41,40.15,26.41,51.79Z"/>
    <path class="cls-4" d="M113.84,223.51c-12.52-17.23-15.18-38.6-9.07-57.42l-52.01,71.58c23.01,16.72,53.41,15.87,75.24,0-5.3-3.85-10.1-8.58-14.16-14.16Z"/>
    <path class="cls-1" d="M104.77,166.09c-16.01,11.62-37.16,15.7-57.42,9.12-6.57-2.13-12.54-5.24-17.84-9.09-8.34,25.66.24,54.84,23.25,71.55h0l52.01-71.58h0Z"/>
    <path class="cls-2" d="M104.77,166.09c4.03-12.41,11.86-23.72,23.23-31.97-14.05,0-27.03-4.54-37.59-12.21-19.78,0-39.29,9.14-51.81,26.37-4.06,5.59-7.07,11.61-9.09,17.84,5.3,3.85,11.28,6.96,17.84,9.09,20.26,6.58,41.41,2.51,57.42-9.12Z"/>
    <path class="cls-2" d="M128,134.11c-11.37-8.26-24.54-12.22-37.59-12.21l37.59,12.21Z"/>
    <path class="cls-2" d="M90.41,121.9c10.56,7.67,23.54,12.21,37.59,12.21l-37.59-12.21h0Z"/>
    <path class="cls-4" d="M151.23,166.09h0s52.01,71.58,52.01,71.58h0c23.01-16.72,31.59-45.89,23.25-71.55-5.3,3.85-11.28,6.96-17.84,9.09-20.26,6.58-41.41,2.51-57.42-9.12Z"/>
    <path class="cls-1" d="M142.16,223.51c-4.06,5.59-8.86,10.31-14.16,14.16,21.83,15.86,52.23,16.71,75.24,0l-52.01-71.58c6.11,18.82,3.45,40.19-9.07,57.42Z"/>
    <path class="cls-2" d="M142.16,223.51c12.52-17.23,15.18-38.6,9.07-57.42h0c-10.56-7.67-18.89-18.61-23.23-31.97-4.34,13.36-12.67,24.31-23.23,31.97h0c-6.11,18.82-3.45,40.19,9.07,57.42,4.06,5.59,8.86,10.31,14.16,14.16,5.3-3.85,10.1-8.58,14.16-14.16Z"/>
    <path class="cls-2" d="M128,134.11l-23.23,31.97c10.56-7.67,18.89-18.61,23.23-31.97Z"/>
    <path class="cls-2" d="M104.77,166.09h0l23.23-31.97c-11.37,8.26-19.2,19.56-23.23,31.97Z"/>
    <path class="cls-1" d="M165.59,121.9h0c19.78,0,39.29,9.14,51.81,26.37,4.06,5.59,7.07,11.61,9.09,17.84,21.83-15.86,32.04-44.51,23.25-71.56l-84.15,27.34Z"/>
    <path class="cls-4" d="M165.59,121.9l84.15-27.34h0c-8.79-27.05-33.88-44.23-60.87-44.23,2.02,6.23,3.13,12.87,3.13,19.78,0,21.3-10.41,40.15-26.41,51.79Z"/>
    <path class="cls-2" d="M169.09,53.47c-20.26,6.58-34.97,22.31-41.09,41.12,4.04,12.41,4.34,26.16,0,39.52,11.37-8.26,24.54-12.22,37.59-12.21h0c16-11.63,26.41-30.49,26.41-51.79,0-6.91-1.11-13.55-3.13-19.78-6.55,0-13.21,1-19.78,3.14Z"/>
    <path class="cls-2" d="M128,134.11v-39.52c-4.04,12.41-4.34,26.16,0,39.52Z"/>
    <path class="cls-2" d="M128,94.59v39.52c4.34-13.36,4.04-27.11,0-39.52Z"/>
    <path class="cls-2" d="M165.59,121.9c-10.56,7.67-23.54,12.21-37.59,12.21,11.37,8.26,19.2,19.56,23.23,31.97,16.01,11.62,37.16,15.7,57.42,9.12,6.57-2.13,12.54-5.24,17.84-9.09-2.03-6.23-5.03-12.26-9.09-17.84-12.52-17.23-32.03-26.36-51.81-26.37Z"/>
    <path class="cls-2" d="M128,134.11l37.59-12.21c-13.05,0-26.22,3.95-37.59,12.21Z"/>
    <path class="cls-2" d="M128,134.11c14.05,0,27.03-4.54,37.59-12.21h0l-37.59,12.21Z"/>
    <path class="cls-2" d="M151.23,166.09l-23.23-31.97c4.34,13.36,12.67,24.31,23.23,31.97Z"/>
    <path class="cls-2" d="M151.23,166.09c-4.03-12.41-11.86-23.72-23.23-31.97l23.23,31.97h0Z"/>
  </g>
  <circle class="cls-3" cx="128" cy="134.11" r="32"/>
</svg>