<?xml version="1.0" encoding="UTF-8"?>
<svg id="tea_cup" xmlns="http://www.w3.org/2000/svg" viewBox="0 0 256 256">
  <defs>
    <style>
      .cls-1 {
        fill: #b58878;
      }

      .cls-2 {
        fill: #eee;
      }

      .cls-3 {
        fill: #d3b3a9;
      }
    </style>
  </defs>
  <path class="cls-2" d="M236.67,100.83c2.17,8.7,3.33,17.8,3.33,27.17,0,61.86-50.14,112-112,112S16,189.86,16,128,66.14,16,128,16c9.37,0,18.47,1.16,27.17,3.33l3.88-15.52c-9.94-2.48-20.34-3.8-31.05-3.8C57.31,0,0,57.31,0,128s57.31,128,128,128,128-57.31,128-128c0-10.71-1.32-21.11-3.8-31.05l-15.52,3.88Z"/>
  <path class="cls-1" d="M16,128c0,61.86,50.14,112,112,112s112-50.14,112-112H16Z"/>
  <circle class="cls-3" cx="200" cy="176" r="16"/>
  <circle class="cls-3" cx="176" cy="192" r="8"/>
  <circle class="cls-3" cx="216" cy="152" r="8"/>
  <circle class="cls-3" cx="48" cy="160" r="16"/>
  <circle class="cls-3" cx="72" cy="144" r="8"/>
  <g>
    <path class="cls-3" d="M101.66,66.34c-6.25-6.25-6.25-16.38,0-22.63l-11.31-11.31c-12.5,12.5-12.5,32.76,0,45.25,6.25,6.25,6.25,16.38,0,22.63l11.31,11.31c12.5-12.5,12.5-32.76,0-45.25Z"/>
    <path class="cls-3" d="M133.66,66.34c-6.25-6.25-6.25-16.38,0-22.63l-11.31-11.31c-12.5,12.5-12.5,32.76,0,45.25,6.25,6.25,6.25,16.38,0,22.63l11.31,11.31c12.5-12.5,12.5-32.76,0-45.25Z"/>
    <path class="cls-3" d="M165.66,66.34c-6.25-6.25-6.25-16.38,0-22.63l-11.31-11.31c-12.5,12.5-12.5,32.76,0,45.25,6.25,6.25,6.25,16.38,0,22.63l11.31,11.31c12.5-12.5,12.5-32.76,0-45.25Z"/>
  </g>
</svg>