<?xml version="1.0" encoding="UTF-8"?>
<svg id="Layer_1" xmlns="http://www.w3.org/2000/svg" version="1.1" viewBox="0 0 256 256">
  <!-- Generator: Adobe Illustrator 30.2.0, SVG Export Plug-In . SVG Version: 2.1.1 Build 105)  -->
  <path d="M211.6,141l-46.9-37.5c-.7-.5-1.6-.9-2.4-.9h-5.5v18.2c5.6,1.6,9.8,6.9,9.8,13s-6.1,13.6-13.7,13.6-13.6-6.1-13.6-13.6,4.1-11.4,9.7-13v-18.2h-5.5c-.9,0-1.7.3-2.4.9l-46.9,37.5c-.9.7-1.4,1.9-1.4,3v108.1c0,2.1,1.7,3.9,3.9,3.9h112.5c2.1,0,3.9-1.7,3.9-3.9v-108.1c0-1.2-.5-2.3-1.5-3ZM112.7,221c-2.7,0-4.9-2.2-4.9-5s2.2-4.9,4.9-4.9,4.9,2.2,4.9,4.9-2.2,5-4.9,5ZM112.7,182.9c-2.7,0-4.9-2.2-4.9-4.9s2.2-5,4.9-5,4.9,2.2,4.9,5-2.2,4.9-4.9,4.9ZM124.2,239.5c-2.7,0-4.9-2.2-4.9-4.9s2.2-4.9,4.9-4.9,5,2.2,5,4.9-2.2,4.9-5,4.9ZM124.2,201.4c-2.7,0-4.9-2.2-4.9-4.9s2.2-5,4.9-5,5,2.2,5,5-2.2,4.9-5,4.9ZM135.7,221c-2.7,0-4.9-2.2-4.9-5s2.2-4.9,4.9-4.9,5,2.2,5,4.9-2.2,5-5,5ZM135.7,182.9c-2.7,0-4.9-2.2-4.9-4.9s2.2-5,4.9-5,5,2.2,5,5-2.2,4.9-5,4.9ZM147.2,239.5c-2.7,0-4.9-2.2-4.9-4.9s2.2-4.9,4.9-4.9,5,2.2,5,4.9-2.2,4.9-5,4.9ZM147.2,201.4c-2.7,0-4.9-2.2-4.9-4.9s2.2-5,4.9-5,5,2.2,5,5-2.2,4.9-5,4.9ZM158.6,221c-2.7,0-4.9-2.2-4.9-5s2.2-4.9,4.9-4.9,5,2.2,5,4.9-2.2,5-5,5ZM158.6,182.9c-2.7,0-4.9-2.2-4.9-4.9s2.2-5,4.9-5,5,2.2,5,5-2.2,4.9-5,4.9ZM170.1,239.5c-2.7,0-4.9-2.2-4.9-4.9s2.2-4.9,4.9-4.9,5,2.2,5,4.9-2.2,4.9-5,4.9ZM170.1,201.4c-2.7,0-4.9-2.2-4.9-4.9s2.2-5,4.9-5,5,2.2,5,5-2.2,4.9-5,4.9ZM181.6,221c-2.7,0-4.9-2.2-4.9-5s2.2-4.9,4.9-4.9,5,2.2,5,4.9-2.2,5-5,5ZM181.6,182.9c-2.7,0-4.9-2.2-4.9-4.9s2.2-5,4.9-5,5,2.2,5,5-2.2,4.9-5,4.9ZM193.1,239.5c-2.7,0-4.9-2.2-4.9-4.9s2.2-4.9,4.9-4.9,5,2.2,5,4.9-2.2,4.9-5,4.9ZM193.1,201.4c-2.7,0-4.9-2.2-4.9-4.9s2.2-5,4.9-5,5,2.2,5,5-2.2,4.9-5,4.9Z"/>
  <path d="M156.8,64.7c0-14-11.4-25.5-25.5-25.5s-25.5,11.5-25.5,25.5v18c0,9.8-8,17.8-17.8,17.8s-17.8-8-17.8-17.8v-33h6.4c1,0,2-.4,2.7-1.1l9.3-9.2c.7-.7,1.1-1.7,1.1-2.8V10.2c0-5.6-4.6-10.2-10.2-10.2h-26.3c-5.6,0-10.2,4.6-10.2,10.2v26.3c0,1,.4,2,1.1,2.8l9.2,9.2c.7.7,1.7,1.1,2.8,1.1h6.4v33c0,14.1,11.5,25.5,25.6,25.5s25.5-11.4,25.5-25.5v-18c0-9.8,8-17.8,17.8-17.8s17.8,8,17.8,17.8v37.9h7.8v-37.9Z"/>
</svg>